<svg id="Layer_1" data-name="Layer 1" xmlns="http://www.w3.org/2000/svg" viewBox="0 0 406.09 396.07"><defs><style>.cls-1,.cls-2{fill:#fff;}.cls-1{fill-rule:evenodd;}</style></defs><title>Github-Mark</title><path class="cls-1" d="M-566.59,97.73c-112.13,0-203,90.9-203,203A203.1,203.1,0,0,0-630.78,493.44c10.14,1.88,13.87-4.4,13.87-9.77,0-4.83-.19-20.83-.28-37.8-56.48,12.29-68.4-24-68.4-24-9.24-23.46-22.55-29.71-22.55-29.71-18.42-12.6,1.39-12.34,1.39-12.34,20.39,1.43,31.13,20.93,31.13,20.93,18.1,31,47.5,22.06,59.08,16.88,1.83-13.13,7.09-22.09,12.89-27.16-45.1-5.13-92.51-22.54-92.51-100.34,0-22.17,7.94-40.28,20.93-54.5-2.11-5.12-9.06-25.77,2-53.74,0,0,17-5.45,55.85,20.82a194.75,194.75,0,0,1,50.83-6.84,195.14,195.14,0,0,1,50.86,6.84c38.76-26.27,55.78-20.82,55.78-20.82,11.06,28,4.11,48.62,2,53.74,13,14.22,20.89,32.33,20.89,54.5,0,78-47.5,95.16-92.71,100.18C-522.49,396.65-516,409-516,428c0,27.17-.23,49-.23,55.72,0,5.41,3.65,11.74,13.94,9.75A203.07,203.07,0,0,0-363.55,300.77C-363.55,188.63-454.46,97.73-566.59,97.73Z" transform="translate(769.64 -97.73)"/><path class="cls-2" d="M-692.74,389.26c-.44,1-2,1.31-3.48.62s-2.29-2-1.82-3.05,2-1.33,3.5-.64,2.31,2.05,1.8,3.07Zm-2.49-1.86" transform="translate(769.64 -97.73)"/><path class="cls-2" d="M-684.51,398.43c-1,.9-2.86.48-4.15-.94s-1.57-3.31-.59-4.22,2.83-.47,4.16.94,1.59,3.31.58,4.22Zm-1.94-2.08" transform="translate(769.64 -97.73)"/><path class="cls-2" d="M-676.5,410.12c-1.25.87-3.28.06-4.54-1.75s-1.25-4,0-4.84,3.26-.08,4.53,1.71,1.25,4,0,4.88Zm0,0" transform="translate(769.64 -97.73)"/><path class="cls-2" d="M-665.54,421.42c-1.11,1.23-3.48.9-5.22-.78s-2.26-4-1.15-5.18,3.51-.89,5.26.77,2.3,4,1.11,5.19Zm0,0" transform="translate(769.64 -97.73)"/><path class="cls-2" d="M-650.41,428c-.49,1.59-2.77,2.31-5.07,1.64s-3.8-2.56-3.34-4.17,2.78-2.35,5.09-1.63,3.8,2.54,3.32,4.16Zm0,0" transform="translate(769.64 -97.73)"/><path class="cls-2" d="M-633.79,429.2c.06,1.67-1.89,3.06-4.31,3.09s-4.39-1.3-4.42-3,1.91-3.06,4.34-3.1,4.39,1.3,4.39,3Zm0,0" transform="translate(769.64 -97.73)"/><path class="cls-2" d="M-618.33,426.57c.29,1.63-1.39,3.31-3.78,3.75s-4.54-.57-4.84-2.19,1.41-3.36,3.77-3.79,4.55.57,4.85,2.23Zm0,0" transform="translate(769.64 -97.73)"/></svg>