<svg id="Layer_1" data-name="Layer 1" xmlns="http://www.w3.org/2000/svg" viewBox="0 0 128 128"><defs><style>.cls-1{fill:#fff;}</style></defs><title>Linkedin Logo</title><path class="cls-1" d="M-45,248H-157a8,8,0,0,0-8,8V368a8,8,0,0,0,8,8H-45a8,8,0,0,0,8-8V256A8,8,0,0,0-45,248Zm-80,109h-19V295h19Zm-9-70a11,11,0,0,1-11-11,11,11,0,0,1,11-11,11,11,0,0,1,11,11A11,11,0,0,1-134,287Zm84,37v33H-69V327c0-12-3-16-12-16s-10,12-10,12v34h-19V295h19v9c1-2,5-12,24-10S-50,324-50,324Z" transform="translate(165 -248)"/></svg>